<svg width="93" height="93" viewBox="0 0 93 93" fill="none" xmlns="http://www.w3.org/2000/svg">
<path d="M72.1934 68.9554L73.1932 68.9552V67.9554V49.923C73.1932 44.9203 71.8561 41.1109 69.4901 38.5438C67.1167 35.9687 63.8203 34.766 60.1593 34.766C57.1861 34.766 54.9777 35.5887 53.3182 36.7382C52.7166 37.1549 52.1942 37.6097 51.7382 38.0736V36.505V35.505H50.7382H40.284H39.236L39.2851 36.5519C39.3529 37.9954 39.3534 45.8195 39.336 53.3347C39.3274 57.0808 39.3144 60.7348 39.3035 63.4523C39.2981 64.8111 39.2933 65.9357 39.2897 66.7205L39.2856 67.6299L39.2844 67.8687L39.2842 67.9299L39.2841 67.9453L39.2841 67.9492L39.2841 67.9502C39.2841 67.9504 39.2841 67.9505 40.284 67.9554L39.2841 67.9505L39.2792 68.9554H40.284H50.7382H51.7382V67.9554V50.3911C51.7382 49.4576 51.8127 48.6962 52.0074 48.2246L52.0075 48.2246L52.0111 48.2157C52.6702 46.5746 54.0995 45.02 56.4442 45.02C58.0417 45.02 59.0397 45.6059 59.6851 46.5532C60.3739 47.5643 60.7406 49.1078 60.7406 51.1301V67.9569V68.957L61.7407 68.9569L72.1934 68.9554ZM36.1863 26.776V26.765L36.186 26.754C36.147 24.9752 35.4874 23.3578 34.2735 22.1845C33.0577 21.0095 31.353 20.3441 29.3402 20.3441C27.3305 20.3441 25.5965 21.0068 24.3568 22.1753C23.1151 23.3456 22.4265 24.9713 22.4265 26.776C22.4265 30.3704 25.1668 33.2125 29.2048 33.2125H29.271C31.3196 33.2125 33.0564 32.5292 34.2875 31.3481C35.518 30.1676 36.1863 28.543 36.1863 26.776ZM34.4981 68.9554H35.4981V67.9554V36.505V35.505H34.4981H24.0454H23.0454V36.505V67.9554V68.9554H24.0454H34.4981ZM46.2702 91.3788C21.3136 91.3788 1.08081 71.146 1.08081 46.1894C1.08081 21.2313 21.3136 1 46.2702 1C71.2268 1 91.4596 21.2313 91.4596 46.1894C91.4596 71.146 71.2268 91.3788 46.2702 91.3788Z" fill="#FFC0CB" fill-opacity="0.5" stroke="#FFC0CB" stroke-width="2"/>
</svg>
