<svg width="93" height="94" viewBox="0 0 93 94" fill="none" xmlns="http://www.w3.org/2000/svg">
<path d="M72.544 69.7658L73.5439 69.7656V68.7658V50.7334C73.5439 45.7309 72.2082 41.9217 69.8444 39.3546C67.4731 36.7793 64.1794 35.5764 60.5214 35.5764C57.5506 35.5764 55.344 36.3993 53.6859 37.5489C53.0857 37.965 52.5644 38.4191 52.1093 38.8823V37.3154V36.3154H51.1093H40.665H39.617L39.6661 37.3623C39.7338 38.8058 39.7343 46.6299 39.7169 54.1451C39.7083 57.8912 39.6953 61.5452 39.6845 64.2627C39.6791 65.6215 39.6742 66.7461 39.6707 67.531L39.6666 68.4403L39.6654 68.6792L39.6651 68.7403L39.6651 68.7557L39.6651 68.7596L39.665 68.7606C39.665 68.7608 39.665 68.7609 40.665 68.7658L39.665 68.7609L39.6602 69.7658H40.665H51.1093H52.1093V68.7658V51.2015C52.1093 50.268 52.1837 49.5065 52.3783 49.0347L52.3783 49.0347L52.3819 49.0258C53.0406 47.3844 54.4684 45.8304 56.8098 45.8304C58.4051 45.8304 59.4019 46.416 60.0466 47.3633C60.7348 48.3744 61.1011 49.9181 61.1011 51.9405V68.7673V69.7675L62.1013 69.7673L72.544 69.7658ZM36.5721 27.5864V27.5754L36.5719 27.5645C36.5328 25.7859 35.874 24.1686 34.6612 22.9953C33.4464 21.8201 31.743 21.1545 29.7316 21.1545C27.7234 21.1545 25.9906 21.8174 24.752 22.986C23.5114 24.1565 22.8235 25.7821 22.8235 27.5864C22.8235 31.1799 25.5607 34.0229 29.5963 34.0229H29.6624C31.7096 34.0229 33.4451 33.3394 34.6752 32.1582C35.9046 30.9776 36.5721 29.3531 36.5721 27.5864ZM34.8845 69.7658H35.8845V68.7658V37.3154V36.3154H34.8845H24.4418H23.4418V37.3154V68.7658V69.7658H24.4418H34.8845ZM46.6455 92.1892C21.7141 92.1892 1.50003 71.9573 1.50003 46.9998C1.50003 22.0408 21.714 1.81042 46.6455 1.81042C71.5769 1.81042 91.7909 22.0408 91.7909 46.9998C91.7909 71.9573 71.5769 92.1892 46.6455 92.1892Z" fill="#FFC0CB" fill-opacity="0.5" stroke="#FFC0CB" stroke-width="2"/>
</svg>
