<svg width="93" height="94" viewBox="0 0 93 94" fill="none" xmlns="http://www.w3.org/2000/svg">
<path d="M46.1363 38.4989C46.1363 38.9862 46.1626 39.4717 46.2199 39.9513C37.7738 39.1819 30.3284 34.9917 25.2555 28.7678L24.3395 27.6439L23.6144 28.8995C22.5835 30.6847 21.9792 32.7731 21.9792 34.9885C21.9792 37.8536 22.9738 40.4974 24.644 42.5762C24.2132 42.4081 23.796 42.2114 23.3944 41.989L21.9099 41.1668V42.8638V42.864V42.8643V42.8646V42.8648V42.8651V42.8654V42.8657V42.8659V42.8662V42.8665V42.8667V42.867V42.8673V42.8675V42.8678V42.8681V42.8684V42.8686V42.8689V42.8692V42.8694V42.8697V42.87V42.8703V42.8705V42.8708V42.8711V42.8713V42.8716V42.8719V42.8721V42.8724V42.8727V42.873V42.8732V42.8735V42.8738V42.874V42.8743V42.8746V42.8749V42.8751V42.8754V42.8757V42.8759V42.8762V42.8765V42.8767V42.877V42.8773V42.8776V42.8778V42.8781V42.8784V42.8786V42.8789V42.8792V42.8795V42.8797V42.88V42.8803V42.8805V42.8808V42.8811V42.8813V42.8816V42.8819V42.8822V42.8824V42.8827V42.883V42.8832V42.8835V42.8838V42.8841V42.8843V42.8846V42.8849V42.8851V42.8854V42.8857V42.8859V42.8862V42.8865V42.8868V42.887V42.8873V42.8876V42.8878V42.8881V42.8884V42.8887V42.8889V42.8892V42.8895V42.8897V42.89V42.8903V42.8905V42.8908V42.8911V42.8914V42.8916V42.8919V42.8922V42.8924V42.8927V42.893V42.8933V42.8935V42.8938V42.8941V42.8943V42.8946V42.8949V42.8951V42.8954V42.8957V42.896V42.8962V42.8965V42.8968V42.897V42.8973V42.8976V42.8979V42.8981V42.8984V42.8987V42.8989V42.8992V42.8995V42.8997V42.9V42.9003V42.9006V42.9008V42.9011V42.9014V42.9016V42.9019V42.9022V42.9025V42.9027V42.903V42.9033V42.9035V42.9038V42.9041V42.9044V42.9046V42.9049V42.9052V42.9054V42.9057V42.906V42.9062V42.9065V42.9068V42.9071V42.9073V42.9076V42.9079V42.9081V42.9084V42.9087V42.909V42.9092V42.9095V42.9098V42.91V42.9103V42.9106V42.9108V42.9111V42.9114V42.9117V42.9119V42.9122V42.9125V42.9127V42.913V42.9133V42.9136V42.9138V42.9141V42.9144V42.9146V42.9149V42.9152V42.9154V42.9157V42.916V42.9163V42.9165V42.9168V42.9171V42.9173V42.9176V42.9179V42.9182V42.9184V42.9187V42.919V42.9192V42.9195V42.9198V42.92V42.9203V42.9206V42.9209V42.9211V42.9214V42.9217V42.9219V42.9222V42.9225V42.9228V42.923V42.9233V42.9236V42.9238V42.9241V42.9244V42.9246V42.9249V42.9252V42.9255V42.9257V42.926V42.9263V42.9265V42.9268V42.9271V42.9274V42.9276V42.9279V42.9282V42.9284V42.9287V42.929V42.9292V42.9295V42.9298V42.9301V42.9303V42.9306V42.9309V42.9311V42.9314V42.9317V42.932V42.9322V42.9325V42.9328V42.933V42.9333V42.9336V42.9338V42.9341V42.9344V42.9347V42.9349V42.9352V42.9355V42.9357V42.936V42.9363V42.9366V42.9368V42.9371V42.9374V42.9376V42.9379V42.9382V42.9384V42.9387V42.939V42.9393V42.9395V42.9398V42.9401V42.9403V42.9406V42.9409V42.9412V42.9414V42.9417V42.942V42.9422V42.9425V42.9428V42.9431V42.9433V42.9436V42.9439V42.9441V42.9444V42.9447V42.9449V42.9452V42.9455V42.9458V42.946V42.9463V42.9466V42.9468V42.9471V42.9474V42.9477V42.9479V42.9482V42.9485V42.9487V42.949V42.9493V42.9495V42.9498V42.9501V42.9504V42.9506V42.9509V42.9512V42.9514V42.9517V42.952V42.9523V42.9525V42.9528V42.9531V42.9533V42.9536V42.9539V42.9541V42.9544V42.9547V42.955V42.9552V42.9555V42.9558V42.956V42.9563V42.9566V42.9569V42.9571V42.9574V42.9577V42.9579V42.9582V42.9585V42.9587V42.959V42.9593V42.9596V42.9598V42.9601V42.9604V42.9606V42.9609V42.9612V42.9615V42.9617V42.962V42.9623V42.9625V42.9628V42.9631V42.9633V42.9636V42.9639V42.9642V42.9644V42.9647V42.965V42.9652V42.9655V42.9658V42.9661V42.9663V42.9666V42.9669V42.9671V42.9674V42.9677V42.9679V42.9682V42.9685V42.9688V42.969V42.9693V42.9696V42.9698V42.9701V42.9704V42.9707V42.9709V42.9712V42.9715V42.9717V42.972V42.9723V42.9725V42.9728V42.9731V42.9734V42.9736V42.9739V42.9742V42.9744V42.9747V42.975V42.9753V42.9755V42.9758V42.9761V42.9763V42.9766V42.9769V42.9771V42.9774V42.9777V42.978V42.9782V42.9785V42.9788V42.979V42.9793V42.9796V42.9799V42.9801V42.9804V42.9807V42.9809V42.9812V42.9815V42.9818V42.982V42.9823V42.9826V42.9828V42.9831V42.9834V42.9836V42.9839V42.9842V42.9845V42.9847V42.985V42.9853V42.9855V42.9858V42.9861V42.9864V42.9866V42.9869V42.9872V42.9874V42.9877V42.988V42.9882V42.9885V42.9888V42.9891V42.9893V42.9896V42.9899V42.9901V42.9904V42.9907V42.991V42.9912V42.9915V42.9918V42.992V42.9923V42.9926V42.9928V42.9931V42.9934V42.9937V42.9939V42.9942V42.9945V42.9947V42.995V42.9953V42.9956V42.9958V42.9961V42.9964V42.9966V42.9969V42.9972V42.9974V42.9977V42.998V42.9983V42.9985V42.9988V42.9991V42.9993V42.9996V42.9999V43.0002V43.0004V43.0007V43.001V43.0012V43.0015V43.0018V43.002V43.0023C21.9099 47.2971 24.1312 51.0542 27.4878 53.2138C27.3281 53.19 27.1686 53.1622 27.0091 53.1303L25.3465 52.7978L25.8599 54.4137C27.1291 58.4087 30.4095 61.4919 34.5075 62.4986C31.2626 64.4692 27.451 65.6051 23.3718 65.6051C22.5054 65.6051 21.6724 65.5607 20.8464 65.452L20.1686 67.2803C25.2013 70.5719 31.2571 72.4781 37.7367 72.4781C58.8889 72.4781 70.4226 54.9333 70.4226 39.7922V39.7799C70.4226 39.4781 70.4226 39.1645 70.4165 38.8513C72.5036 37.2676 74.3293 35.3321 75.7961 33.1433L77.7162 30.2778L74.5612 31.6719C73.7901 32.0126 72.9932 32.3098 72.1733 32.5602C73.1656 31.3742 73.9341 29.9949 74.417 28.4791L75.2134 25.9793L72.9552 27.3148C71.0518 28.4405 68.958 29.2817 66.726 29.7853C64.5391 27.6602 61.5568 26.3672 58.2679 26.3672C51.5724 26.3672 46.1363 31.8034 46.1363 38.4989ZM91.3788 47.1132C91.3788 72.0805 71.1567 92.3026 46.1894 92.3026C21.222 92.3026 1 72.0805 1 47.1132C1 22.1458 21.222 1.9238 46.1894 1.9238C71.1567 1.9238 91.3788 22.1458 91.3788 47.1132Z" fill="#FFC0CB" fill-opacity="0.5" stroke="#FFC0CB" stroke-width="2"/>
</svg>
