<svg width="94" height="94" viewBox="0 0 94 94" fill="none" xmlns="http://www.w3.org/2000/svg">
<path d="M47.0097 38.3855C47.0097 38.8728 47.036 39.3583 47.0932 39.8378C38.6562 39.0682 31.2186 34.8783 26.1507 28.6547L25.2344 27.5294L24.5091 28.7865C23.4792 30.5716 22.8756 32.6599 22.8756 34.8751C22.8756 37.7398 23.869 40.3834 25.5375 42.4622C25.1079 42.2943 24.6918 42.0978 24.2912 41.8758L22.8064 41.0526V42.7504V42.7507V42.7509V42.7512V42.7515V42.7517V42.752V42.7523V42.7525V42.7528V42.7531V42.7534V42.7536V42.7539V42.7542V42.7544V42.7547V42.755V42.7553V42.7555V42.7558V42.7561V42.7563V42.7566V42.7569V42.7571V42.7574V42.7577V42.758V42.7582V42.7585V42.7588V42.759V42.7593V42.7596V42.7599V42.7601V42.7604V42.7607V42.7609V42.7612V42.7615V42.7617V42.762V42.7623V42.7626V42.7628V42.7631V42.7634V42.7636V42.7639V42.7642V42.7645V42.7647V42.765V42.7653V42.7655V42.7658V42.7661V42.7663V42.7666V42.7669V42.7672V42.7674V42.7677V42.768V42.7682V42.7685V42.7688V42.7691V42.7693V42.7696V42.7699V42.7701V42.7704V42.7707V42.771V42.7712V42.7715V42.7718V42.772V42.7723V42.7726V42.7728V42.7731V42.7734V42.7737V42.7739V42.7742V42.7745V42.7747V42.775V42.7753V42.7756V42.7758V42.7761V42.7764V42.7766V42.7769V42.7772V42.7774V42.7777V42.778V42.7783V42.7785V42.7788V42.7791V42.7793V42.7796V42.7799V42.7802V42.7804V42.7807V42.781V42.7812V42.7815V42.7818V42.782V42.7823V42.7826V42.7829V42.7831V42.7834V42.7837V42.7839V42.7842V42.7845V42.7848V42.785V42.7853V42.7856V42.7858V42.7861V42.7864V42.7866V42.7869V42.7872V42.7875V42.7877V42.788V42.7883V42.7885V42.7888V42.7891V42.7894V42.7896V42.7899V42.7902V42.7904V42.7907V42.791V42.7912V42.7915V42.7918V42.7921V42.7923V42.7926V42.7929V42.7931V42.7934V42.7937V42.794V42.7942V42.7945V42.7948V42.795V42.7953V42.7956V42.7958V42.7961V42.7964V42.7967V42.7969V42.7972V42.7975V42.7977V42.798V42.7983V42.7986V42.7988V42.7991V42.7994V42.7996V42.7999V42.8002V42.8004V42.8007V42.801V42.8013V42.8015V42.8018V42.8021V42.8023V42.8026V42.8029V42.8032V42.8034V42.8037V42.804V42.8042V42.8045V42.8048V42.805V42.8053V42.8056V42.8059V42.8061V42.8064V42.8067V42.8069V42.8072V42.8075V42.8078V42.808V42.8083V42.8086V42.8088V42.8091V42.8094V42.8097V42.8099V42.8102V42.8105V42.8107V42.811V42.8113V42.8115V42.8118V42.8121V42.8124V42.8126V42.8129V42.8132V42.8134V42.8137V42.814V42.8143V42.8145V42.8148V42.8151V42.8153V42.8156V42.8159V42.8161V42.8164V42.8167V42.817V42.8172V42.8175V42.8178V42.818V42.8183V42.8186V42.8189V42.8191V42.8194V42.8197V42.8199V42.8202V42.8205V42.8207V42.821V42.8213V42.8216V42.8218V42.8221V42.8224V42.8226V42.8229V42.8232V42.8235V42.8237V42.824V42.8243V42.8245V42.8248V42.8251V42.8253V42.8256V42.8259V42.8262V42.8264V42.8267V42.827V42.8272V42.8275V42.8278V42.8281V42.8283V42.8286V42.8289V42.8291V42.8294V42.8297V42.8299V42.8302V42.8305V42.8308V42.831V42.8313V42.8316V42.8318V42.8321V42.8324V42.8327V42.8329V42.8332V42.8335V42.8337V42.834V42.8343V42.8345V42.8348V42.8351V42.8354V42.8356V42.8359V42.8362V42.8364V42.8367V42.837V42.8373V42.8375V42.8378V42.8381V42.8383V42.8386V42.8389V42.8391V42.8394V42.8397V42.84V42.8402V42.8405V42.8408V42.841V42.8413V42.8416V42.8419V42.8421V42.8424V42.8427V42.8429V42.8432V42.8435V42.8438V42.844V42.8443V42.8446V42.8448V42.8451V42.8454V42.8456V42.8459V42.8462V42.8465V42.8467V42.847V42.8473V42.8475V42.8478V42.8481V42.8484V42.8486V42.8489V42.8492V42.8494V42.8497V42.85V42.8502V42.8505V42.8508V42.8511V42.8513V42.8516V42.8519V42.8521V42.8524V42.8527V42.853V42.8532V42.8535V42.8538V42.854V42.8543V42.8546V42.8548V42.8551V42.8554V42.8557V42.8559V42.8562V42.8565V42.8567V42.857V42.8573V42.8576V42.8578V42.8581V42.8584V42.8586V42.8589V42.8592V42.8594V42.8597V42.86V42.8603V42.8605V42.8608V42.8611V42.8613V42.8616V42.8619V42.8622V42.8624V42.8627V42.863V42.8632V42.8635V42.8638V42.864V42.8643V42.8646V42.8649V42.8651V42.8654V42.8657V42.8659V42.8662V42.8665V42.8668V42.867V42.8673V42.8676V42.8678V42.8681V42.8684V42.8686V42.8689V42.8692V42.8695V42.8697V42.87V42.8703V42.8705V42.8708V42.8711V42.8714V42.8716V42.8719V42.8722V42.8724V42.8727V42.873V42.8732V42.8735V42.8738V42.8741V42.8743V42.8746V42.8749V42.8751V42.8754V42.8757V42.876V42.8762V42.8765V42.8768V42.877V42.8773V42.8776V42.8778V42.8781V42.8784V42.8787V42.8789V42.8792V42.8795V42.8797V42.88V42.8803V42.8806V42.8808V42.8811V42.8814V42.8816V42.8819V42.8822V42.8825V42.8827V42.883V42.8833V42.8835V42.8838V42.8841V42.8843V42.8846V42.8849V42.8852V42.8854V42.8857V42.886V42.8862V42.8865V42.8868V42.8871V42.8873V42.8876V42.8879V42.8881V42.8884V42.8887V42.8889C22.8064 47.1833 25.0254 50.9405 28.3792 53.1003C28.2199 53.0766 28.061 53.0488 27.9019 53.0169L26.2396 52.6842L26.7525 54.3C28.0205 58.2948 31.2977 61.3783 35.3924 62.3852C32.1508 64.3558 28.3429 65.4917 24.2678 65.4917C23.4023 65.4917 22.5701 65.4473 21.745 65.3386L21.0667 67.1667C26.0949 70.4584 32.1452 72.3647 38.619 72.3647C59.7526 72.3647 71.2748 54.819 71.2748 39.6788V39.666C71.2748 39.3644 71.2748 39.0508 71.2687 38.7376C73.3539 37.1538 75.1779 35.2184 76.6433 33.0296L78.5618 30.1637L75.4078 31.5587C74.638 31.8992 73.8424 32.1961 73.0239 32.4464C74.0154 31.2604 74.783 29.8811 75.2655 28.3654L76.0613 25.8649L73.8032 27.2016C71.9019 28.3271 69.8106 29.1682 67.5812 29.6718C65.3964 27.5469 62.4168 26.2538 59.1307 26.2538C52.4402 26.2538 47.0097 31.6909 47.0097 38.3855ZM92.2091 46.9998C92.2091 71.968 72.0058 92.1892 47.0637 92.1892C22.1215 92.1892 1.91821 71.968 1.91821 46.9998C1.91821 22.0316 22.1215 1.81042 47.0637 1.81042C72.0058 1.81042 92.2091 22.0316 92.2091 46.9998Z" fill="#FFC0CB" fill-opacity="0.5" stroke="#FFC0CB" stroke-width="2"/>
</svg>
