<svg width="189" height="76" viewBox="0 0 189 76" fill="none" xmlns="http://www.w3.org/2000/svg">
<path d="M25.0493 16.3205C34.2989 14.635 43.2161 7.96015 51.6416 4.12185C52.6617 3.65716 63.6378 -0.41089 61.8287 4.12185C57.2569 15.5769 43.7691 25.0168 34.7733 32.5633C24.3393 41.3164 11.8803 48.483 2.029 57.8225C1.33595 58.4795 13.2848 53.4778 14.2006 52.9828C17.5634 51.1651 54.7278 29.8656 55.1476 30.707C55.4876 31.3885 53.8335 31.4746 53.1631 31.834C49.0492 34.0393 47.9069 34.7044 43.439 37.2704C40.4219 39.0031 32.7667 45.4225 28.6214 44.9608C27.9133 44.882 29.9369 44.4109 30.6059 44.1653C38.5868 41.2351 46.0676 37.4438 53.6261 33.5577C63.8186 28.3175 75.3691 24.0618 84.9813 17.779C87.8931 15.8758 90.6257 13.0454 86.2381 18.442C81.3572 24.4456 74.5345 31.3569 71.7513 38.7289C70.7525 41.3743 78.726 39.3984 79.0278 39.3256C90.0784 36.6593 100.255 30.0817 110.118 24.6739C112.461 23.3895 115.959 21.993 117.924 19.9005C120.963 16.665 109.177 21.5929 105.025 23.1491C97.627 25.9214 88.341 28.5976 82.203 33.9555C74.7128 40.4937 101.79 30.317 111.243 27.2595C127.708 21.934 144.055 16.0326 159.202 7.56929C159.587 7.35405 168.222 2.52973 164.031 5.05C129.784 25.6436 98.3089 50.5257 64.9378 72.4741C64.2113 72.9519 61.9529 74.0385 62.821 73.999C76.3995 73.3804 91.4659 66.19 103.9 61.6677C126.09 53.5973 148.744 46.1598 170.646 37.3367C176.618 34.9308 181.065 32.3302 185.53 27.8562C186.182 27.2019 188.066 25.9753 186.191 25.2706C175.741 21.343 160.287 23.4331 149.544 24.011C107.493 26.2729 67.2367 40.0132 26.24 48.5409" stroke="#FFC0CB" stroke-opacity="0.05" stroke-width="3" stroke-linecap="round"/>
</svg>
