<svg width="94" height="94" viewBox="0 0 94 94" fill="none" xmlns="http://www.w3.org/2000/svg">
<path d="M92.1258 46.9998C92.1258 71.9572 71.8938 92.1892 46.9364 92.1892C21.979 92.1892 1.74704 71.9572 1.74704 46.9998C1.74704 22.0424 21.979 1.81042 46.9364 1.81042C71.8938 1.81042 92.1258 22.0424 92.1258 46.9998Z" fill="#FFC0CB" fill-opacity="0.5" stroke="#FFC0CB" stroke-width="2"/>
<path fill-rule="evenodd" clip-rule="evenodd" d="M40.5837 55.0443L40.5818 37.6179L57.2057 46.3611L40.5837 55.0443ZM77.0848 34.5982C77.0848 34.5982 76.483 30.3244 74.6391 28.4424C72.2991 25.9712 69.6765 25.9595 68.4748 25.8161C59.8648 25.1881 46.9499 25.1881 46.9499 25.1881H46.923C46.923 25.1881 34.008 25.1881 25.398 25.8161C24.1944 25.9595 21.5737 25.9712 19.2318 28.4424C17.388 30.3244 16.7881 34.5982 16.7881 34.5982C16.7881 34.5982 16.1728 39.6181 16.1728 44.6361V49.3421C16.1728 54.3621 16.7881 59.3801 16.7881 59.3801C16.7881 59.3801 17.388 63.6539 19.2318 65.5359C21.5737 68.0071 24.6482 67.9296 26.0172 68.1873C30.9393 68.6641 46.9364 68.8114 46.9364 68.8114C46.9364 68.8114 59.8648 68.7921 68.4748 68.1641C69.6765 68.0187 72.2991 68.0071 74.6391 65.5359C76.483 63.6539 77.0848 59.3801 77.0848 59.3801C77.0848 59.3801 77.7001 54.3621 77.7001 49.3421V44.6361C77.7001 39.6181 77.0848 34.5982 77.0848 34.5982Z" fill="#202A44" stroke="#FFC0CB" stroke-width="2"/>
</svg>
